# File created by Blade
# Date/Time:  Tue Jan 27 19:32:46 2015
#---------------------------------------------------------
:version 1.10
:name HOM
:units
  mass 1.0
  length 1.000000
  angle deg
:documentation
     Acclaim Skeleton File
:root
   axis xyz
   order TX TY TZ RX RY RZ
   position 0.000000 0.000000 0.000000
   orientation 0 0 0
:bonedata
   begin
      id 1
      name Spine_dum
      direction 0.000000 1.000000 0.000000
      length 6.116652
      axis 0.0 0.0 0.0 xyz
   end
   begin
      id 2
      name LeftUpLeg_dum
      direction 1.000000 0.000000 0.000000
      length 4.711765
      axis 0.0 0.0 0.0 xyz
   end
   begin
      id 3
      name RightUpLeg_dum
      direction -1.000000 0.000000 0.000000
      length 4.711765
      axis 0.0 0.0 0.0 xyz
   end
   begin
      id 4
      name Spine
      direction 0.000000 1.000000 0.000000
      length 0.000000
      axis 0.0 0.0 0.0 xyz
      dof rx ry rz
   end
   begin
      id 5
      name Spine_dum1
      direction 0.000000 1.000000 0.000000
      length 15.225563
      axis 0.0 0.0 0.0 xyz
   end
   begin
      id 6
      name Spine_dum2
      direction 0.000000 1.000000 0.000000
      length 8.977654
      axis 0.0 0.0 0.0 xyz
   end
   begin
      id 7
      name Spine_dum3
      direction 0.000000 1.000000 0.000000
      length 8.977654
      axis 0.0 0.0 0.0 xyz
   end
   begin
      id 8
      name Head
      direction 0.000000 1.000000 0.000000
      length 4.527550
      axis 0.0 0.0 0.0 xyz
      dof rx ry rz
   end
   begin
      id 9
      name LeftShoulder
      direction 1.000000 0.000000 0.000000
      length 7.110130
      axis 0.0 0.0 -90.0 xyz
      dof rx ry rz
   end
   begin
      id 10
      name LeftArm
      direction 1.000000 0.000000 0.000000
      length 10.398341
      axis 0.0 0.0 -90.0 xyz
      dof rx ry rz
   end
   begin
      id 11
      name LeftForeArm
      direction 1.000000 0.000000 0.000000
      length 8.888997
      axis 0.0 0.0 -90.0 xyz
      dof ry rz rx
   end
   begin
      id 12
      name LeftHand
      direction 0.000000 0.000000 0.000000
      length 0.000000
      axis 0.0 0.0 -90.0 xyz
      dof rx ry rz
   end
   begin
      id 13
      name LeftHand_dum1
      direction 0.000000 0.000000 0.000000
      length 0.000000
      axis 0.0 0.0 -90.0 xyz
   end
   begin
      id 14
      name LeftHand_dum2
      direction 1.000000 0.000000 0.000000
      length 3.937000
      axis 0.0 0.0 -90.0 xyz
   end
   begin
      id 15
      name LeftHandThumb1
      direction 0.000000 0.000000 1.000000
      length 3.937000
      axis 0.0 0.0 -90.0 xyz
      dof rx rz ry
   end
   begin
      id 16
      name RightShoulder
      direction -1.000000 0.000000 0.000000
      length 7.110130
      axis 0.0 0.0 90.0 xyz
      dof rx ry rz
   end
   begin
      id 17
      name RightArm
      direction -1.000000 0.000000 0.000000
      length 10.398341
      axis 0.0 0.0 90.0 xyz
      dof rx ry rz
   end
   begin
      id 18
      name RightForeArm
      direction -1.000000 0.000000 0.000000
      length 8.888997
      axis 0.0 0.0 90.0 xyz
      dof ry rz rx
   end
   begin
      id 19
      name RightHand
      direction 0.000000 0.000000 0.000000
      length 0.000000
      axis 0.0 0.0 90.0 xyz
      dof rx ry rz
   end
   begin
      id 20
      name RightHand_dum1
      direction 0.000000 0.000000 0.000000
      length 0.000000
      axis 0.0 0.0 90.0 xyz
   end
   begin
      id 21
      name RightHand_dum2
      direction -1.000000 0.000000 0.000000
      length 3.937000
      axis 0.0 0.0 90.0 xyz
   end
   begin
      id 22
      name RightHandThumb1
      direction 0.000000 0.000000 1.000000
      length 3.937000
      axis 0.0 0.0 90.0 xyz
      dof rx rz ry
   end
   begin
      id 23
      name LeftUpLeg
      direction 0.000000 -1.000000 0.000000
      length 15.510451
      axis 0.0 0.0 0.0 xyz
      dof rx ry rz
   end
   begin
      id 24
      name LeftLeg
      direction 0.000000 -1.000000 0.000000
      length 14.858061
      axis 0.0 0.0 0.0 xyz
      dof rx ry rz
   end
   begin
      id 25
      name LeftFoot
      direction 0.000000 -0.258819 0.965926
      length 5.128852
      axis 15.0 0.0 0.0 xyz
      dof rx ry rz
   end
   begin
      id 26
      name LeftToeBase
      direction 0.000000 0.000000 1.000000
      length 2.952750
      axis 0.0 0.0 0.0 xyz
      dof rx ry rz
   end
   begin
      id 27
      name RightUpLeg
      direction 0.000000 -1.000000 0.000000
      length 15.510451
      axis 0.0 0.0 0.0 xyz
      dof rx ry rz
   end
   begin
      id 28
      name RightLeg
      direction 0.000000 -1.000000 0.000000
      length 14.858061
      axis 0.0 0.0 0.0 xyz
      dof rx ry rz
   end
   begin
      id 29
      name RightFoot
      direction 0.000000 -0.258819 0.965926
      length 5.128852
      axis 15.0 0.0 0.0 xyz
      dof rx ry rz
   end
   begin
      id 30
      name RightToeBase
      direction 0.000000 0.000000 1.000000
      length 2.952750
      axis 0.0 0.0 0.0 xyz
      dof rx ry rz
   end
:hierarchy
   begin
      root Spine_dum LeftUpLeg_dum RightUpLeg_dum
      Spine_dum Spine
      LeftUpLeg_dum LeftUpLeg
      RightUpLeg_dum RightUpLeg
      Spine Spine_dum1 Spine_dum2 Spine_dum3
      Spine_dum1 Head
      Spine_dum2 LeftShoulder
      Spine_dum3 RightShoulder
      LeftShoulder LeftArm
      LeftArm LeftForeArm
      LeftForeArm LeftHand
      LeftHand LeftHand_dum1 LeftHand_dum2
      LeftHand_dum1 LeftHandThumb1
      RightShoulder RightArm
      RightArm RightForeArm
      RightForeArm RightHand
      RightHand RightHand_dum1 RightHand_dum2
      RightHand_dum1 RightHandThumb1
      LeftUpLeg LeftLeg
      LeftLeg LeftFoot
      LeftFoot LeftToeBase
      RightUpLeg RightLeg
      RightLeg RightFoot
      RightFoot RightToeBase
   end

# File created by Blade
# Date/Time:  Tue Jan 27 19:32:37 2015
# Frame Rate: 120.000 fps
#------------------------------------------------------
:FULLY-SPECIFIED
:DEGREES
1304
root 4.169761 32.238100 -0.725976 -7.439949 3.248357 0.274289
Spine 2.797170 18.142890 0.774846
Head 12.545545 -29.846294 -0.667371
LeftShoulder -0.146943 -9.878353 25.751781
LeftArm -0.861817 44.441218 -101.568044
LeftForeArm 1.201365 -0.000000 11.793715
LeftHand 10.276288 -0.000000 -5.900551
LeftHandThumb1 -26.253704 0.000000 33.147579
RightShoulder 0.459956 10.179153 -22.847141
RightArm 39.698854 36.876158 131.430969
RightForeArm 13.765051 -0.000000 124.099560
RightHand 31.009095 0.000000 -30.723556
RightHandThumb1 -24.326973 -0.000000 -32.862282
LeftUpLeg 12.256286 -0.708003 -2.718154
LeftLeg 3.287939 -0.000000 -0.000000
LeftFoot -20.722205 17.934506 -22.353069
LeftToeBase 16.287420 -0.000000 -0.000000
RightUpLeg 12.155099 -12.157722 -0.808791
RightLeg 1.134236 -0.000000 -0.000000
RightFoot -13.210881 -12.656673 14.487616
RightToeBase 11.310883 -0.000000 -0.000000
1305
root 4.178159 32.237016 -0.724978 -7.433158 3.184016 0.273438
Spine 2.788322 17.995488 0.882928
Head 12.604454 -29.524215 -0.877451
LeftShoulder -0.152666 -9.856570 25.831561
LeftArm -1.028227 44.463778 -101.688637
LeftForeArm 1.328494 -0.000000 11.851557
LeftHand 10.280997 -0.000000 -4.987824
LeftHandThumb1 -26.253704 0.000000 33.147579
RightShoulder 0.481040 10.143474 -22.710309
RightArm 39.661268 36.803000 131.365118
RightForeArm 13.893639 -0.000000 124.579232
RightHand 30.994579 -0.000000 -30.974602
RightHandThumb1 -24.326973 -0.000000 -32.862282
LeftUpLeg 12.284109 -0.636027 -2.721691
LeftLeg 3.237668 -0.000000 -0.000000
LeftFoot -20.703413 17.940017 -22.320021
LeftToeBase 16.296144 -0.000000 -0.000000
RightUpLeg 12.153341 -12.122262 -0.817594
RightLeg 1.110225 -0.000000 -0.000000
RightFoot -13.197484 -12.630620 14.508759
RightToeBase 11.253729 -0.000000 -0.000000
1306
root 4.184741 32.235732 -0.723301 -7.446150 3.129973 0.263704
Spine 2.823229 17.861924 1.009950
Head 12.601581 -29.218549 -1.067844
LeftShoulder -0.150227 -9.862323 25.884116
LeftArm -1.169600 44.531529 -101.783203
LeftForeArm 1.298086 0.000000 11.868707
LeftHand 10.316701 0.000000 -4.994895
LeftHandThumb1 -26.253704 0.000000 33.147579
RightShoulder 0.483889 10.162622 -22.619132
RightArm 39.583275 36.769795 131.344147
RightForeArm 13.965760 -0.000000 125.072495
RightHand 30.995303 -0.000000 -31.318494
RightHandThumb1 -24.326973 -0.000000 -32.862282
LeftUpLeg 12.327041 -0.602115 -2.722583
LeftLeg 3.195605 -0.000000 -0.000000
LeftFoot -20.724595 17.935012 -22.367755
LeftToeBase 16.262686 -0.000000 -0.000000
RightUpLeg 12.160037 -12.168985 -0.832014
RightLeg 1.115992 -0.000000 -0.000000
RightFoot -13.177869 -12.562089 14.449339
RightToeBase 11.310662 -0.000000 -0.000000
1307
root 4.189861 32.234238 -0.723195 -7.458474 3.051008 0.259207
Spine 2.849083 17.740219 1.127129
Head 12.625657 -28.896261 -1.247417
LeftShoulder -0.115407 -9.913786 25.930634
LeftArm -1.352713 44.649698 -101.903697
LeftForeArm 1.151365 -0.000000 11.837411
LeftHand 10.414563 -0.000000 -5.181218
LeftHandThumb1 -26.253704 0.000000 33.147579
RightShoulder 0.543461 10.250779 -22.510649
RightArm 39.497127 36.788369 131.349136
RightForeArm 14.098990 -0.000000 125.559556
RightHand 30.978393 -0.000000 -31.321415
RightHandThumb1 -24.326973 -0.000000 -32.862282
LeftUpLeg 12.369768 -0.516308 -2.715746
LeftLeg 3.151858 -0.000000 -0.000000
LeftFoot -20.726004 17.931250 -22.353638
LeftToeBase 16.241606 -0.000000 -0.000000
RightUpLeg 12.166956 -12.141477 -0.837674
RightLeg 1.107082 -0.000000 -0.000000
RightFoot -13.167704 -12.533189 14.413928
RightToeBase 11.274135 -0.000000 -0.000000
1308
root 4.192878 32.233157 -0.726885 -7.450231 2.989119 0.256320
Spine 2.862396 17.630846 1.226367
Head 12.636010 -28.600014 -1.391347
LeftShoulder -0.062628 -10.000708 25.983566
LeftArm -1.503752 44.792890 -102.020352
LeftForeArm 1.152536 -0.000000 11.739187
LeftHand 10.182679 -0.000000 -5.004427
LeftHandThumb1 -26.253704 0.000000 33.147579
RightShoulder 0.588526 10.241566 -22.407157
RightArm 39.570813 36.756078 131.507616
RightForeArm 14.126294 0.000000 126.010572
RightHand 31.066016 0.000000 -31.348455
RightHandThumb1 -24.326973 -0.000000 -32.862282
LeftUpLeg 12.382784 -0.452707 -2.710188
LeftLeg 3.108379 -0.000000 -0.000000
LeftFoot -20.713859 17.937398 -22.326770
LeftToeBase 16.276283 -0.000000 -0.000000
RightUpLeg 12.146899 -12.089946 -0.827758
RightLeg 1.093353 -0.000000 -0.000000
RightFoot -13.146945 -12.544141 14.384892
RightToeBase 11.218519 -0.000000 -0.000000
1309
root 4.195823 32.231473 -0.730194 -7.425247 2.915040 0.252837
Spine 2.842703 17.568211 1.307172
Head 12.655732 -28.341844 -1.484851
LeftShoulder 0.013558 -10.094510 26.036942
LeftArm -1.637631 44.939843 -102.116708
LeftForeArm 1.097657 -0.000000 11.599220
LeftHand 10.226142 -0.000000 -5.193253
LeftHandThumb1 -26.253704 0.000000 33.147579
RightShoulder 0.606238 10.266499 -22.299971
RightArm 39.629945 36.769559 131.670631
RightForeArm 14.178059 -0.000000 126.441843
RightHand 31.044763 0.000000 -31.420982
RightHandThumb1 -24.326973 -0.000000 -32.862282
LeftUpLeg 12.382444 -0.380052 -2.704800
LeftLeg 3.060227 -0.000000 -0.000000
LeftFoot -20.701829 17.962560 -22.278786
LeftToeBase 16.273141 -0.000000 -0.000000
RightUpLeg 12.131565 -11.942933 -0.799936
RightLeg 1.034866 -0.000000 -0.000000
RightFoot -13.156855 -12.581120 14.469475
RightToeBase 11.294870 -0.000000 -0.000000
1310
root 4.199554 32.229957 -0.733773 -7.424164 2.800323 0.240026
Spine 2.865291 17.553796 1.423529
Head 12.651871 -28.086364 -1.566571
LeftShoulder 0.059397 -10.315243 26.077427
LeftArm -1.887151 45.183375 -102.321424
LeftForeArm 0.981729 0.000000 11.420250
LeftHand 10.147765 -0.000000 -5.228984
LeftHandThumb1 -26.253704 0.000000 33.147579
RightShoulder 0.639358 10.370912 -22.233296
RightArm 39.670249 36.898546 131.873992
RightForeArm 14.294634 -0.000000 126.837616
RightHand 31.066113 -0.000000 -31.041078
RightHandThumb1 -24.326973 -0.000000 -32.862282
LeftUpLeg 12.399656 -0.252049 -2.681074
LeftLeg 3.034332 -0.000000 -0.000000
LeftFoot -20.707455 17.942732 -22.264287
LeftToeBase 16.257264 -0.000000 -0.000000
RightUpLeg 12.104617 -11.840781 -0.775815
RightLeg 1.034997 -0.000000 -0.000000
RightFoot -13.137253 -12.577718 14.469866
RightToeBase 11.266663 -0.000000 -0.000000
1311
root 4.204158 32.228583 -0.734767 -7.429434 2.700783 0.227587
Spine 2.879652 17.539716 1.536360
Head 12.669721 -27.846963 -1.638661
LeftShoulder 0.110953 -10.388307 26.118116
LeftArm -1.853927 45.495371 -102.359063
LeftForeArm 0.895117 0.000000 11.103841
LeftHand 10.154394 -0.000000 -5.428553
LeftHandThumb1 -26.253704 0.000000 33.147579
RightShoulder 0.695380 10.519435 -22.190993
RightArm 39.679829 37.135573 132.076578
RightForeArm 14.428794 -0.000000 127.203838
RightHand 30.889530 0.000000 -30.418109
RightHandThumb1 -24.326973 -0.000000 -32.862282
LeftUpLeg 12.424215 -0.136313 -2.659983
LeftLeg 3.011063 -0.000000 -0.000000
LeftFoot -20.698530 17.938735 -22.216991
LeftToeBase 16.226846 -0.000000 -0.000000
RightUpLeg 12.094248 -11.788825 -0.768186
RightLeg 1.032218 -0.000000 -0.000000
RightFoot -13.115751 -12.520423 14.475320
RightToeBase 11.263920 -0.000000 -0.000000
1312
root 4.196292 32.227439 -0.751385 -7.318053 2.675129 0.195248
Spine 2.780383 17.502544 1.563916
Head 12.648224 -27.648343 -1.593137
LeftShoulder 0.197525 -10.513413 26.189879
LeftArm -1.832286 45.673063 -102.387599
LeftForeArm 0.717223 -0.000000 10.802484
LeftHand 10.166767 -0.000000 -6.440001
LeftHandThumb1 -26.253704 0.000000 33.147579
RightShoulder 0.709089 10.586487 -22.090924
RightArm 39.774833 37.281666 132.263520
RightForeArm 14.501958 -0.000000 127.472424
RightHand 30.860203 -0.000000 -29.752434
RightHandThumb1 -24.326973 -0.000000 -32.862282
LeftUpLeg 12.315860 -0.209033 -2.643590
LeftLeg 2.940718 -0.000000 -0.000000
LeftFoot -20.715199 18.088979 -22.185764
LeftToeBase 16.228030 -0.000000 -0.000000
RightUpLeg 11.929099 -11.724766 -0.674919
RightLeg 1.054444 -0.000000 -0.000000
RightFoot -13.116178 -12.606274 14.433777
RightToeBase 11.323618 -0.000000 -0.000000
1313
root 4.196543 32.226650 -0.754470 -7.307699 2.596031 0.177340
Spine 2.771762 17.527807 1.640465
Head 12.663836 -27.462635 -1.568614
LeftShoulder 0.282092 -10.633765 26.233382
LeftArm -1.809662 45.908395 -102.412779
LeftForeArm 0.745716 -0.000000 10.497425
LeftHand 10.106629 0.000000 -6.642243
LeftHandThumb1 -26.253704 0.000000 33.147579
RightShoulder 0.701776 10.643528 -22.040379
RightArm 39.824197 37.402580 132.358601
RightForeArm 14.504547 -0.000000 127.717108
RightHand 30.869869 0.000000 -29.519147
RightHandThumb1 -24.326973 -0.000000 -32.862282
LeftUpLeg 12.312237 -0.185109 -2.630132
LeftLeg 2.933863 -0.000000 -0.000000
LeftFoot -20.751098 18.128208 -22.200920
LeftToeBase 16.168360 -0.000000 -0.000000
RightUpLeg 11.896768 -11.689248 -0.652439
RightLeg 1.061364 -0.000000 -0.000000
RightFoot -13.089791 -12.551641 14.466934
RightToeBase 11.260413 -0.000000 -0.000000
